<svg width="19" height="19" viewBox="0 0 19 19" fill="none" xmlns="http://www.w3.org/2000/svg">
<path d="M18.1931 0.205957C18.1024 0.126706 17.9955 0.0678211 17.8801 0.0333187C17.7647 -0.00118379 17.6432 -0.0105129 17.5239 0.0059444L5.77805 1.68395C5.57818 1.71256 5.39532 1.8122 5.26291 1.96462C5.1305 2.11705 5.05747 2.31204 5.0571 2.51394V12.352C4.54469 12.0524 3.96143 11.895 3.36789 11.896C2.47506 11.8968 1.61918 12.2517 0.987762 12.8829C0.356341 13.5142 0.00102856 14.3701 -3.05176e-05 15.263C0.00102808 16.1559 0.356125 17.0119 0.987518 17.6433C1.61891 18.2747 2.47497 18.6299 3.36789 18.6309C4.26072 18.6299 5.11678 18.2747 5.74802 17.6432C6.37925 17.0118 6.73428 16.1558 6.73508 15.263V6.59795L16.8039 5.15994V10.6739C16.2913 10.3749 15.7084 10.2175 15.115 10.2179C14.2223 10.219 13.3665 10.5741 12.7353 11.2053C12.1041 11.8365 11.7491 12.6923 11.748 13.585C11.7488 14.4778 12.1038 15.3338 12.7351 15.9653C13.3663 16.5967 14.2221 16.9519 15.115 16.9529C16.0079 16.9519 16.8639 16.5967 17.4953 15.9653C18.1267 15.3339 18.4818 14.4779 18.4829 13.585V0.838952C18.4827 0.718821 18.457 0.600115 18.407 0.490899C18.3569 0.381683 18.284 0.284515 18.1931 0.205957Z" fill="white"/>
</svg>
