<svg width="40" height="40" viewBox="0 0 40 40" fill="none" xmlns="http://www.w3.org/2000/svg">
<path opacity="0.5" d="M20 40C31.0457 40 40 31.0457 40 20C40 8.9543 31.0457 0 20 0C8.9543 0 0 8.9543 0 20C0 31.0457 8.9543 40 20 40Z" fill="black"/>
<path d="M27.1931 11.2079C27.1024 11.1287 26.9955 11.0698 26.8801 11.0353C26.7647 11.0008 26.6433 10.9914 26.5239 11.0079L14.7781 12.6859C14.5782 12.7145 14.3953 12.8142 14.2629 12.9666C14.1305 13.119 14.0575 13.314 14.0571 13.5159V23.3539C13.5447 23.0544 12.9615 22.897 12.3679 22.8979C11.4751 22.8987 10.6192 23.2536 9.98779 23.8849C9.35637 24.5161 9.00106 25.3721 9 26.2649C9.00106 27.1578 9.35616 28.0139 9.98755 28.6453C10.6189 29.2767 11.475 29.6318 12.3679 29.6329C13.2608 29.6318 14.1168 29.2766 14.748 28.6452C15.3793 28.0138 15.7343 27.1577 15.7351 26.2649V17.5999L25.804 16.1619V21.6759C25.2913 21.3768 24.7085 21.2195 24.115 21.2199C23.2223 21.221 22.3666 21.576 21.7354 22.2072C21.1041 22.8384 20.7491 23.6942 20.748 24.5869C20.7488 25.4797 21.1039 26.3358 21.7351 26.9672C22.3663 27.5986 23.2222 27.9538 24.115 27.9549C25.0079 27.9538 25.864 27.5987 26.4954 26.9673C27.1268 26.3359 27.4819 25.4798 27.4829 24.5869V11.8409C27.4828 11.7208 27.457 11.6021 27.407 11.4929C27.3569 11.3836 27.284 11.2865 27.1931 11.2079Z" fill="white"/>
</svg>
