<svg width="18" height="16" viewBox="0 0 18 16" fill="none" xmlns="http://www.w3.org/2000/svg">
<path d="M13.7709 5.24291L12.629 1.95391C12.4473 1.41365 12.0992 0.944745 11.6347 0.614402C11.1701 0.28406 10.6131 0.109208 10.0431 0.11489H8.1891C7.61895 0.108996 7.06155 0.28377 6.59682 0.614128C6.13209 0.944485 5.78374 1.41349 5.60194 1.95391L4.45888 5.24291H0.266006V6.14291H1.15199L2.60194 13.4849C2.70107 14.0079 2.9808 14.4795 3.39223 14.8173C3.80366 15.155 4.32062 15.3375 4.85292 15.3329H13.381C13.9132 15.3377 14.4301 15.1552 14.8414 14.8174C15.2527 14.4796 15.5323 14.0079 15.631 13.4849L17.0809 6.14291H17.966V5.24291H13.7709ZM6.35805 12.4339H5.4579V8.14388H6.35805V12.4339ZM9.55092 12.8059H8.65102V7.7719H9.55092V12.8059ZM12.7431 12.4339H11.8429V8.14388H12.7431V12.4339ZM5.41591 5.24291L6.45692 2.24291C6.57925 1.88056 6.81309 1.56615 7.12489 1.34469C7.4367 1.12323 7.81058 1.00606 8.19301 1.00991H10.0441C10.4264 1.00667 10.7998 1.12408 11.1115 1.34545C11.4231 1.56683 11.6571 1.88089 11.7799 2.24291L12.82 5.24291H5.41591Z" fill="white"/>
</svg>
