<svg width="31" height="31" viewBox="0 0 31 31" fill="none" xmlns="http://www.w3.org/2000/svg">
<path d="M15.8309 30.04C11.8488 30.0355 8.03103 28.4516 5.21521 25.6358C2.39939 22.82 0.815535 19.0022 0.811035 15.02C0.815535 11.0378 2.39939 7.22005 5.21521 4.40422C8.03103 1.5884 11.8488 0.00449948 15.8309 0C19.8132 0.00423532 23.6311 1.58806 26.447 4.40393C29.2629 7.21981 30.8467 11.0377 30.851 15.02C30.8467 19.0023 29.2629 22.8202 26.447 25.6361C23.6311 28.4519 19.8132 30.0358 15.8309 30.04ZM15.8309 2.5C12.5116 2.50397 9.32952 3.82431 6.98242 6.17141C4.63533 8.5185 3.315 11.7007 3.31104 15.02C3.315 18.3393 4.63533 21.5215 6.98242 23.8686C9.32952 26.2157 12.5116 27.536 15.8309 27.54C19.1503 27.5363 22.3327 26.216 24.6798 23.8689C27.027 21.5217 28.3472 18.3394 28.351 15.02C28.3472 11.7006 27.027 8.51827 24.6798 6.17112C22.3327 3.82396 19.1503 2.50371 15.8309 2.5Z" fill="white"/>
<path d="M4.66606 21.4659C5.23117 22.4403 5.92099 23.3369 6.71806 24.1329C7.91187 25.3336 9.332 26.2855 10.8963 26.9335C12.4606 27.5815 14.1378 27.9127 15.831 27.9079C17.5243 27.9124 19.2016 27.5811 20.766 26.9331C22.3304 26.2852 23.7508 25.3334 24.945 24.1329C25.7421 23.3369 26.4319 22.4403 26.997 21.4659C28.1305 19.5071 28.725 17.283 28.72 15.0199C28.7249 12.7565 28.1304 10.5321 26.997 8.57289C26.4313 7.59882 25.7415 6.70233 24.945 5.90589C23.7508 4.70553 22.3304 3.75392 20.766 3.10611C19.2016 2.45831 17.5242 2.12718 15.831 2.13189C14.1379 2.12698 12.4607 2.45803 10.8964 3.10584C9.33213 3.75366 7.91196 4.70538 6.71806 5.90589C5.92122 6.70208 5.23142 7.59861 4.66606 8.57289C3.53223 10.5319 2.9377 12.7564 2.94303 15.0199C2.9374 17.2831 3.53195 19.5073 4.66606 21.4659ZM12.542 15.0199C12.5417 14.4425 12.6942 13.8753 12.984 13.3759C13.2725 12.876 13.6874 12.4608 14.1872 12.1721C14.6869 11.8833 15.2538 11.7312 15.831 11.7309C16.4083 11.7312 16.9754 11.8834 17.4753 12.1721C17.9752 12.4608 18.3903 12.876 18.679 13.3759C18.9688 13.8753 19.1213 14.4425 19.121 15.0199C19.1212 15.5973 18.9687 16.1644 18.679 16.6639C18.3901 17.1636 17.975 17.5787 17.4751 17.8674C16.9753 18.1561 16.4082 18.3084 15.831 18.3089C15.2539 18.3083 14.6871 18.156 14.1874 17.8673C13.6877 17.5786 13.2728 17.1636 12.984 16.6639C12.6944 16.1644 12.5419 15.5973 12.542 15.0199Z" fill="#FF8398"/>
<path d="M15.8309 23.1079V27.9079C17.5242 27.9124 19.2016 27.5811 20.766 26.9332C22.3304 26.2852 23.7508 25.3334 24.9449 24.1329C25.742 23.3369 26.4318 22.4404 26.9969 21.4659L22.837 19.0659C22.1271 20.2956 21.1057 21.3166 19.8759 22.0261C18.646 22.7357 17.2508 23.1088 15.8309 23.1079Z" fill="#54E360"/>
<path d="M23.9199 15.02C23.9221 16.4403 23.5486 17.8359 22.837 19.065L26.9969 21.465C28.1305 19.5062 28.725 17.2821 28.72 15.019C28.7248 12.7556 28.1303 10.5312 26.9969 8.57202L22.837 10.972C23.5492 12.202 23.9228 13.5987 23.9199 15.02Z" fill="#008ADF"/>
<path d="M8.82495 19.0649L4.66602 21.4649C5.23113 22.4394 5.92095 23.336 6.71802 24.1319C7.91183 25.3326 9.33196 26.2845 10.8962 26.9325C12.4605 27.5805 14.1378 27.9117 15.8309 27.9069V23.1069C14.4111 23.1075 13.0162 22.7343 11.7864 22.0248C10.5565 21.3152 9.53513 20.2944 8.82495 19.0649Z" fill="#FFD400"/>
<path d="M22.837 10.9748L26.9969 8.57484C26.4313 7.60078 25.7415 6.70428 24.9449 5.90784C23.7507 4.70748 22.3304 3.75586 20.766 3.10806C19.2016 2.46026 17.5242 2.12913 15.8309 2.13384V6.93384C17.2507 6.93295 18.6458 7.30595 19.8756 8.01533C21.1055 8.7247 22.1269 9.74543 22.837 10.9748Z" fill="#0065A3"/>
<path d="M4.66605 21.4659L8.82499 19.0659C8.11418 17.8365 7.74088 16.441 7.74296 15.0209C7.74074 13.6008 8.11405 12.2053 8.82499 10.9759L4.66605 8.57593C3.53222 10.535 2.93769 12.7594 2.94303 15.0229C2.93792 17.2851 3.53246 19.5083 4.66605 21.4659Z" fill="#FF9100"/>
<path d="M15.8309 6.93091V2.13091C14.1378 2.12601 12.4606 2.45705 10.8964 3.10487C9.33209 3.75268 7.91192 4.7044 6.71802 5.90491C5.92118 6.7011 5.23138 7.59763 4.66602 8.57191L8.82495 10.9719C9.53534 9.74271 10.5568 8.72215 11.7866 8.0128C13.0164 7.30346 14.4112 6.93033 15.8309 6.93091Z" fill="#FF4949"/>
<path d="M19.121 15.0199C19.1211 15.5973 18.9686 16.1644 18.679 16.6639L22.837 19.0639C23.5486 17.8347 23.9221 16.4391 23.9199 15.0189C23.9223 13.5986 23.5487 12.203 22.837 10.9739L18.679 13.3739C18.9691 13.8739 19.1216 14.4418 19.121 15.0199Z" fill="#0065A3"/>
<path d="M18.679 13.3759L22.837 10.9759C22.1273 9.74591 21.106 8.72459 19.8761 8.01467C18.6462 7.30476 17.251 6.9313 15.8309 6.93189V11.7319C16.4081 11.7321 16.9751 11.8841 17.475 12.1727C17.9749 12.4612 18.3901 12.8762 18.679 13.3759Z" fill="#005183"/>
<path d="M15.8309 18.309V23.109C17.2509 23.1098 18.6461 22.7365 19.876 22.0268C21.1059 21.3171 22.1272 20.2959 22.837 19.066L18.679 16.666C18.3898 17.1654 17.9746 17.58 17.4747 17.8684C16.9749 18.1568 16.408 18.3087 15.8309 18.309Z" fill="#00AB5E"/>
<path d="M15.8309 23.1078V18.3078C15.2538 18.3072 14.6871 18.155 14.1874 17.8662C13.6877 17.5775 13.2727 17.1625 12.984 16.6628L8.82495 19.0628C9.53475 20.2929 10.556 21.3143 11.7859 22.0244C13.0157 22.7344 14.4108 23.1081 15.8309 23.1078Z" fill="#FF9F04"/>
<path d="M12.542 15.0198C12.5417 14.4424 12.6942 13.8752 12.984 13.3758L8.82496 10.9758C8.11402 12.2052 7.74071 13.6007 7.74293 15.0208C7.74085 16.441 8.11415 17.8364 8.82496 19.0658L12.984 16.6658C12.694 16.1658 12.5415 15.5979 12.542 15.0198Z" fill="#FF4B00"/>
<path d="M15.8309 11.7309V6.93091C14.4109 6.93063 13.016 7.30422 11.7861 8.0141C10.5563 8.72398 9.53496 9.74514 8.82495 10.9749L12.984 13.3749C13.2726 12.8752 13.6877 12.4602 14.1874 12.1717C14.6871 11.8831 15.2539 11.7311 15.8309 11.7309Z" fill="#E80048"/>
</svg>
