<svg width="32" height="32" viewBox="0 0 32 32" fill="none" xmlns="http://www.w3.org/2000/svg">
<path d="M12.1969 14.895L14.056 19.7833H10.3541L12.1969 14.895ZM31.9999 6.7207V25.2793C31.9999 27.0617 31.2918 28.7712 30.0315 30.0316C28.7711 31.2919 27.0617 32 25.2793 32H6.71949C5.83697 32 4.96313 31.8262 4.1478 31.4884C3.33248 31.1506 2.59157 30.6556 1.96759 30.0315C1.34361 29.4074 0.848667 28.6665 0.511047 27.8511C0.173427 27.0357 -0.000152505 26.1618 1.00537e-07 25.2793V6.7207C7.39012e-08 4.93846 0.707894 3.2292 1.96802 1.96886C3.22814 0.708514 4.93725 0.000308133 6.71949 0H25.2793C27.0617 0 28.7711 0.708069 30.0315 1.96844C31.2918 3.22882 31.9999 4.93826 31.9999 6.7207ZM18.117 24.2928L13.6726 12.7245H10.7281L6.29879 24.2928H8.64595L9.60691 21.7842H14.8101L15.7537 24.2928H18.117ZM19.2988 12.3015V12.0006C19.2988 11.382 19.5444 10.7887 19.9817 10.3512C20.419 9.91365 21.0122 9.6677 21.6308 9.66739H21.9329C21.9919 9.66739 22.0503 9.65575 22.1048 9.63314C22.1593 9.61053 22.2088 9.57739 22.2505 9.53562C22.2921 9.49385 22.3251 9.44426 22.3476 9.38971C22.3701 9.33516 22.3815 9.27672 22.3814 9.21772C22.3814 9.15882 22.3697 9.1005 22.3472 9.04608C22.3246 8.99166 22.2917 8.94222 22.25 8.90058C22.2084 8.85893 22.1589 8.82589 22.1045 8.80335C22.0501 8.78081 21.9918 8.76921 21.9329 8.76921H21.6308C21.0122 8.7689 20.419 8.52295 19.9817 8.08542C19.5444 7.6479 19.2988 7.05462 19.2988 6.43602V6.13508C19.2988 6.01581 19.2513 5.90144 19.167 5.81711C19.0827 5.73278 18.9683 5.6854 18.849 5.6854C18.7297 5.6854 18.6155 5.73278 18.5311 5.81711C18.4468 5.90144 18.3994 6.01581 18.3994 6.13508V6.43486C18.3995 6.7412 18.3393 7.04457 18.2222 7.32764C18.1051 7.61071 17.9333 7.86793 17.7167 8.0846C17.5001 8.30127 17.243 8.47315 16.96 8.59042C16.677 8.70769 16.3737 8.76804 16.0674 8.76804H15.7653C15.6463 8.76804 15.5322 8.8153 15.4481 8.89941C15.364 8.98353 15.3168 9.09761 15.3168 9.21656C15.3166 9.27556 15.3281 9.334 15.3505 9.38855C15.373 9.4431 15.406 9.49268 15.4477 9.53446C15.4894 9.57623 15.5389 9.60937 15.5934 9.63198C15.6479 9.65459 15.7063 9.66623 15.7653 9.66623H16.0674C16.3737 9.66623 16.677 9.72659 16.96 9.84386C17.243 9.96112 17.5001 10.133 17.7167 10.3497C17.9333 10.5663 18.1051 10.8236 18.2222 11.1066C18.3393 11.3897 18.3995 11.6931 18.3994 11.9994V12.3004C18.3994 12.4196 18.4468 12.534 18.5311 12.6183C18.6155 12.7027 18.7297 12.75 18.849 12.75C18.9681 12.75 19.0823 12.7028 19.1666 12.6187C19.2509 12.5347 19.2985 12.4206 19.2988 12.3015ZM26.2808 15.8048C26.2808 15.6855 26.2335 15.5712 26.1492 15.4868C26.0649 15.4025 25.9504 15.3551 25.8312 15.3551H25.5302C24.9116 15.3551 24.3184 15.1095 23.8809 14.6722C23.4434 14.2349 23.1974 13.6417 23.1971 13.0231V12.721C23.1971 12.602 23.1499 12.488 23.0657 12.4038C22.9816 12.3197 22.8675 12.2725 22.7486 12.2725C22.6295 12.2725 22.5153 12.3197 22.431 12.4038C22.3467 12.4879 22.2991 12.6019 22.2988 12.721V13.0231C22.2985 13.6417 22.0525 14.2349 21.615 14.6722C21.1775 15.1095 20.5843 15.3551 19.9657 15.3551H19.6647C19.5455 15.3551 19.431 15.4025 19.3467 15.4868C19.2624 15.5712 19.2151 15.6855 19.2151 15.8048C19.2151 15.9241 19.2624 16.0384 19.3467 16.1228C19.431 16.2071 19.5455 16.2545 19.6647 16.2545H19.9657C20.272 16.2543 20.5754 16.3145 20.8584 16.4317C21.1415 16.5488 21.3988 16.7205 21.6154 16.9371C21.8321 17.1537 22.004 17.4108 22.1212 17.6938C22.2385 17.9768 22.2988 18.2801 22.2988 18.5865V18.8886C22.2991 19.0077 22.3467 19.1217 22.431 19.2058C22.5153 19.2899 22.6295 19.3371 22.7486 19.3371C22.8675 19.3371 22.9816 19.2899 23.0657 19.2057C23.1499 19.1216 23.1971 19.0076 23.1971 18.8886V18.5865C23.1971 18.2801 23.2574 17.9768 23.3747 17.6938C23.4919 17.4108 23.6638 17.1537 23.8805 16.9371C24.0971 16.7205 24.3544 16.5488 24.6375 16.4317C24.9205 16.3145 25.2239 16.2543 25.5302 16.2545H25.8312C25.8902 16.2545 25.9487 16.2428 26.0032 16.2202C26.0578 16.1976 26.1074 16.1645 26.1492 16.1228C26.1909 16.081 26.224 16.0314 26.2466 15.9769C26.2692 15.9223 26.2808 15.8638 26.2808 15.8048Z" fill="white"/>
</svg>
