<svg width="32" height="32" viewBox="0 0 32 32" fill="none" xmlns="http://www.w3.org/2000/svg">
<path d="M11.8981 15.2096L13.7572 20.0979H10.0553L11.8981 15.2096ZM17.8182 24.6074L13.3738 13.0391H10.4294L6 24.6074H8.34715L9.30811 22.0988H14.5113L15.4549 24.6074H17.8182ZM19 12.6161V12.3152C19 11.6966 19.2456 11.1033 19.6829 10.6658C20.1202 10.2283 20.7134 9.9823 21.332 9.98199H21.6341C21.6931 9.98199 21.7515 9.97035 21.806 9.94774C21.8605 9.92513 21.91 9.89199 21.9517 9.85021C21.9933 9.80844 22.0263 9.75886 22.0488 9.70431C22.0713 9.64976 22.0827 9.59132 22.0826 9.53232C22.0826 9.47342 22.0709 9.4151 22.0484 9.36068C22.0259 9.30626 21.9929 9.25682 21.9512 9.21517C21.9096 9.17353 21.8601 9.14049 21.8057 9.11795C21.7513 9.09541 21.693 9.08381 21.6341 9.08381H21.332C20.7134 9.0835 20.1202 8.83754 19.6829 8.40002C19.2456 7.9625 19 7.36922 19 6.75062V6.44967C19 6.33041 18.9525 6.21604 18.8682 6.13171C18.7839 6.04738 18.6695 6 18.5502 6C18.431 6 18.3167 6.04738 18.2324 6.13171C18.148 6.21604 18.1006 6.33041 18.1006 6.44967V6.74946C18.1007 7.0558 18.0406 7.35917 17.9234 7.64224C17.8063 7.92531 17.6345 8.18253 17.4179 8.3992C17.2013 8.61587 16.9442 8.78775 16.6612 8.90502C16.3782 9.02229 16.0749 9.08264 15.7686 9.08264H15.4665C15.3475 9.08264 15.2334 9.1299 15.1493 9.21401C15.0652 9.29813 15.018 9.4122 15.018 9.53116C15.0178 9.59015 15.0293 9.6486 15.0518 9.70315C15.0742 9.7577 15.1072 9.80728 15.1489 9.84905C15.1906 9.89083 15.2401 9.92396 15.2946 9.94658C15.3491 9.96919 15.4075 9.98083 15.4665 9.98083H15.7686C16.0749 9.98083 16.3782 10.0412 16.6612 10.1585C16.9442 10.2757 17.2013 10.4476 17.4179 10.6643C17.6345 10.8809 17.8063 11.1382 17.9234 11.4212C18.0406 11.7043 18.1007 12.0077 18.1006 12.314V12.615C18.1006 12.7342 18.148 12.8486 18.2324 12.9329C18.3167 13.0173 18.431 13.0646 18.5502 13.0646C18.6693 13.0646 18.7835 13.0174 18.8678 12.9333C18.9521 12.8493 18.9997 12.7352 19 12.6161ZM25.982 16.1194C25.982 16.0001 25.9347 15.8858 25.8504 15.8014C25.7661 15.7171 25.6516 15.6697 25.5324 15.6697H25.2314C24.6128 15.6697 24.0196 15.4241 23.5821 14.9868C23.1446 14.5494 22.8986 13.9563 22.8983 13.3377V13.0356C22.8983 12.9166 22.8511 12.8026 22.7669 12.7184C22.6828 12.6343 22.5687 12.5871 22.4498 12.5871C22.3307 12.5871 22.2165 12.6343 22.1322 12.7184C22.0479 12.8025 22.0003 12.9165 22 13.0356V13.3377C21.9997 13.9563 21.7537 14.5494 21.3162 14.9868C20.8787 15.4241 20.2855 15.6697 19.6669 15.6697H19.3659C19.2467 15.6697 19.1323 15.7171 19.0479 15.8014C18.9636 15.8858 18.9163 16.0001 18.9163 16.1194C18.9163 16.2387 18.9636 16.353 19.0479 16.4374C19.1323 16.5217 19.2467 16.5691 19.3659 16.5691H19.6669C19.9733 16.5689 20.2766 16.6291 20.5596 16.7462C20.8427 16.8634 21.1 17.0351 21.3166 17.2517C21.5333 17.4683 21.7052 17.7254 21.8224 18.0084C21.9397 18.2914 22 18.5947 22 18.9011V19.2032C22.0003 19.3223 22.0479 19.4363 22.1322 19.5204C22.2165 19.6045 22.3307 19.6517 22.4498 19.6517C22.5687 19.6517 22.6828 19.6045 22.7669 19.5203C22.8511 19.4362 22.8983 19.3222 22.8983 19.2032V18.9011C22.8983 18.5947 22.9586 18.2914 23.0759 18.0084C23.1931 17.7254 23.365 17.4683 23.5817 17.2517C23.7983 17.0351 24.0556 16.8634 24.3387 16.7462C24.6217 16.6291 24.9251 16.5689 25.2314 16.5691H25.5324C25.5914 16.5691 25.6499 16.5574 25.7044 16.5348C25.759 16.5122 25.8086 16.4791 25.8504 16.4374C25.8921 16.3956 25.9252 16.346 25.9478 16.2915C25.9704 16.2369 25.982 16.1784 25.982 16.1194Z" fill="white"/>
<path d="M25.2781 32H6.72206C4.93975 31.9978 3.23104 31.2814 1.97086 30.0078C0.710679 28.7343 0.00184566 27.0077 0 25.2068V6.79322C0.00184566 4.99232 0.710679 3.2657 1.97086 1.99216C3.23104 0.718624 4.93975 0.00217629 6.72206 0H25.2781C27.0604 0.00217629 28.7691 0.718624 30.0293 1.99216C31.2895 3.2657 31.9982 4.99232 32 6.79322V25.2068C31.9982 27.0077 31.2895 28.7343 30.0293 30.0078C28.7691 31.2814 27.0604 31.9978 25.2781 32ZM6.72206 2.93621C5.71025 2.93776 4.74036 3.34466 4.02501 4.06769C3.30966 4.79072 2.90715 5.77086 2.90592 6.79322V25.2068C2.90715 26.2291 3.30966 27.2093 4.02501 27.9323C4.74036 28.6553 5.71025 29.0622 6.72206 29.0638H25.2781C26.2899 29.0622 27.2598 28.6553 27.9751 27.9323C28.6905 27.2093 29.0929 26.2291 29.0941 25.2068V6.79322C29.0929 5.77086 28.6905 4.79072 27.9751 4.06769C27.2598 3.34466 26.2899 2.93776 25.2781 2.93621H6.72206Z" fill="white"/>
</svg>
