<svg width="36" height="32" viewBox="0 0 36 32" fill="none" xmlns="http://www.w3.org/2000/svg">
<path d="M34.1918 0H1.80822C0.809567 0 0 0.819327 0 1.83002C0 2.84071 0.809567 3.66004 1.80822 3.66004H34.1918C35.1904 3.66004 36 2.84071 36 1.83002C36 0.819327 35.1904 0 34.1918 0Z" fill="white"/>
<path d="M34.1918 18.8933H1.80822C0.809567 18.8933 0 19.7126 0 20.7233C0 21.734 0.809567 22.5533 1.80822 22.5533H34.1918C35.1904 22.5533 36 21.734 36 20.7233C36 19.7126 35.1904 18.8933 34.1918 18.8933Z" fill="white"/>
<path d="M22.7393 28.34H1.48374C0.664293 28.34 0 29.0123 0 29.8416V30.4984C0 31.3277 0.664293 32 1.48374 32H22.7393C23.5587 32 24.223 31.3277 24.223 30.4984V29.8416C24.223 29.0123 23.5587 28.34 22.7393 28.34Z" fill="white"/>
<path d="M22.7393 9.44666H1.48374C0.664293 9.44666 0 10.119 0 10.9483V11.6051C0 12.4344 0.664293 13.1067 1.48374 13.1067H22.7393C23.5587 13.1067 24.223 12.4344 24.223 11.6051V10.9483C24.223 10.119 23.5587 9.44666 22.7393 9.44666Z" fill="white"/>
</svg>
