<svg width="17" height="17" viewBox="0 0 17 17" fill="none" xmlns="http://www.w3.org/2000/svg">
<path d="M10.64 13.573L9.08601 15.127C8.59648 15.6232 8.01261 16.0163 7.36873 16.2832C6.72485 16.5501 6.03398 16.6853 5.33699 16.681C3.92673 16.6853 2.57244 16.1294 1.57185 15.1356C0.571274 14.1417 0.00634906 12.7913 0.0010537 11.381V11.373C0.000659683 10.6722 0.138307 9.97812 0.406327 9.33055C0.674347 8.68298 1.06749 8.09458 1.56307 7.59901L3.076 6.08601C3.26433 5.88871 3.52284 5.77371 3.79549 5.76604C4.06814 5.75836 4.33293 5.85862 4.53206 6.04501L4.56404 6.08601C4.66343 6.18205 4.74288 6.29674 4.79793 6.42351C4.85297 6.55028 4.88252 6.68664 4.88484 6.82483C4.88716 6.96301 4.86211 7.1003 4.81136 7.22885C4.7606 7.3574 4.68505 7.47468 4.58894 7.574L4.56404 7.59901L3.0511 9.09901C2.7583 9.3961 2.52686 9.74802 2.37019 10.1346C2.21353 10.5212 2.13464 10.9349 2.13802 11.352C2.13004 11.7709 2.20671 12.1872 2.3636 12.5757C2.52049 12.9642 2.75445 13.3171 3.0511 13.613C3.65023 14.2152 4.46383 14.5551 5.31331 14.5581C6.16279 14.5611 6.97874 14.227 7.58211 13.629L9.08211 12.129C9.27787 11.9271 9.54553 11.811 9.82674 11.8063C10.1079 11.8016 10.3797 11.9087 10.5821 12.104L10.598 12.129C10.7918 12.3167 10.9048 12.5727 10.9127 12.8425C10.9205 13.1122 10.8226 13.3743 10.64 13.573Z" fill="white"/>
<path d="M11.3621 6.81491L6.82305 11.3539C6.72999 11.4517 6.61858 11.5302 6.49517 11.5849C6.37175 11.6396 6.23876 11.6694 6.10381 11.6726C5.96886 11.6759 5.83445 11.6525 5.70855 11.6038C5.58264 11.5551 5.46758 11.4821 5.36992 11.3889L5.33696 11.3559C5.13882 11.1659 5.02406 10.9052 5.01787 10.6307C5.01169 10.3563 5.11462 10.0906 5.304 9.89191L9.85894 5.33691C10.0558 5.13595 10.3245 5.02137 10.6058 5.01837C10.887 5.01537 11.1579 5.12419 11.3589 5.32091C11.5561 5.51935 11.667 5.78756 11.6675 6.06729C11.6681 6.34702 11.5585 6.61568 11.3621 6.81491Z" fill="white"/>
<path d="M15.129 9.09195L13.608 10.6049C13.5123 10.7073 13.3964 10.7886 13.2677 10.8439C13.1389 10.8991 13.0001 10.9271 12.86 10.9259C12.7212 10.9263 12.5837 10.8979 12.4564 10.8427C12.3291 10.7875 12.2146 10.7065 12.12 10.6049C11.9183 10.4091 11.8024 10.1412 11.7977 9.86011C11.793 9.57898 11.8998 9.30745 12.0948 9.10495L12.12 9.08894L13.6329 7.58894C14.2248 6.98539 14.5555 6.1733 14.5538 5.32796C14.5587 4.90874 14.4798 4.49278 14.3216 4.10451C14.1635 3.71624 13.9293 3.36348 13.6329 3.06696C13.0329 2.46586 12.2188 2.12742 11.3695 2.12592C10.5202 2.12442 9.70503 2.45998 9.10289 3.05894L7.59801 4.55894C7.50152 4.65827 7.38631 4.73762 7.25914 4.79243C7.13197 4.84725 6.99527 4.87647 6.8568 4.87842C6.71833 4.88037 6.58092 4.85501 6.45226 4.8038C6.32359 4.75259 6.2063 4.67653 6.10704 4.57996L6.08995 4.56395C5.89271 4.37399 5.77774 4.11426 5.76989 3.84053C5.76203 3.5668 5.86193 3.3009 6.04796 3.09995L6.08995 3.06696L7.60289 1.55396C8.09737 1.05944 8.68434 0.667155 9.33043 0.399521C9.97652 0.131887 10.6692 -0.00585937 11.3685 -0.00585938C12.0678 -0.00585937 12.7603 0.131887 13.4064 0.399521C14.0524 0.667155 14.6394 1.05944 15.1339 1.55396C16.1304 2.55549 16.6895 3.91114 16.6886 5.32399C16.6876 6.73684 16.1269 8.09174 15.129 9.09195Z" fill="white"/>
</svg>
