<svg width="36" height="32" viewBox="0 0 36 32" fill="none" xmlns="http://www.w3.org/2000/svg">
<path d="M34.1918 0H1.80822C0.809567 0 0 0.819327 0 1.83002C0 2.84071 0.809567 3.66004 1.80822 3.66004H34.1918C35.1904 3.66004 36 2.84071 36 1.83002C36 0.819327 35.1904 0 34.1918 0Z" fill="white"/>
<path d="M34.1918 18.8933H1.80822C0.809567 18.8933 0 19.7126 0 20.7233C0 21.734 0.809567 22.5533 1.80822 22.5533H34.1918C35.1904 22.5533 36 21.734 36 20.7233C36 19.7126 35.1904 18.8933 34.1918 18.8933Z" fill="white"/>
<path d="M28.6269 28.34H7.37144C6.55199 28.34 5.8877 29.0123 5.8877 29.8416V30.4984C5.8877 31.3277 6.55199 32 7.37144 32H28.6269C29.4464 32 30.1107 31.3277 30.1107 30.4984V29.8416C30.1107 29.0123 29.4464 28.34 28.6269 28.34Z" fill="white"/>
<path d="M28.6269 9.44666H7.37144C6.55199 9.44666 5.8877 10.119 5.8877 10.9483V11.6051C5.8877 12.4344 6.55199 13.1067 7.37144 13.1067H28.6269C29.4464 13.1067 30.1107 12.4344 30.1107 11.6051V10.9483C30.1107 10.119 29.4464 9.44666 28.6269 9.44666Z" fill="white"/>
</svg>
