<svg width="40" height="40" viewBox="0 0 40 40" fill="none" xmlns="http://www.w3.org/2000/svg">
<path opacity="0.5" d="M20 40C31.0457 40 40 31.0457 40 20C40 8.9543 31.0457 0 20 0C8.9543 0 0 8.9543 0 20C0 31.0457 8.9543 40 20 40Z" fill="black"/>
<path d="M31.5269 17.694L27.4029 12.336C27.3294 12.2404 27.2227 12.1758 27.1039 12.1549C26.9851 12.1339 26.8627 12.1583 26.7609 12.223L24.0979 13.917H20.6249C20.5798 13.918 20.535 13.9254 20.4919 13.939L17.7989 14.714L15.0049 13.95L12.2899 12.224C12.1902 12.1598 12.0704 12.1346 11.9533 12.153C11.8363 12.1715 11.73 12.2323 11.6549 12.324L7.09287 17.974C7.01393 18.0717 6.9762 18.1963 6.98759 18.3214C6.99898 18.4464 7.05862 18.5622 7.15391 18.644L9.5449 20.702L11.6899 23.593C11.3871 23.9165 11.2218 24.3451 11.2289 24.7882C11.2359 25.2313 11.4149 25.6543 11.7279 25.968C12.0061 26.2463 12.3723 26.4195 12.7639 26.458C12.7505 26.5444 12.7438 26.6316 12.7439 26.719C12.7435 26.9432 12.7875 27.1653 12.8733 27.3725C12.9591 27.5796 13.0851 27.7677 13.2439 27.926C13.4023 28.0849 13.5906 28.211 13.7979 28.2968C14.0052 28.3826 14.2275 28.4265 14.4519 28.426H14.4719C14.4719 28.438 14.4719 28.449 14.4719 28.461C14.4715 28.6852 14.5155 28.9073 14.6013 29.1144C14.6871 29.3216 14.8131 29.5097 14.9719 29.668C15.1303 29.8269 15.3186 29.9529 15.5259 30.0388C15.7332 30.1246 15.9555 30.1685 16.1799 30.168C16.2693 30.1679 16.3586 30.1608 16.4469 30.147C16.4847 30.5402 16.6584 30.9079 16.9379 31.187C17.0962 31.3458 17.2843 31.4718 17.4914 31.5576C17.6986 31.6434 17.9207 31.6874 18.1449 31.687C18.3691 31.6874 18.5912 31.6434 18.7984 31.5576C19.0055 31.4718 19.1936 31.3458 19.3519 31.187L19.6129 30.926L19.7229 31.014C20.0409 31.3226 20.4668 31.4948 20.9099 31.494C21.1341 31.4944 21.3562 31.4504 21.5633 31.3646C21.7705 31.2788 21.9586 31.1528 22.1169 30.994C22.279 30.8325 22.4068 30.64 22.4927 30.428C22.5786 30.2159 22.6209 29.9888 22.6169 29.76C22.8457 29.764 23.0729 29.7217 23.2849 29.6358C23.4969 29.5499 23.6895 29.4221 23.8509 29.26C24.0129 29.0987 24.1406 28.9063 24.2265 28.6945C24.3125 28.4826 24.3548 28.2556 24.3509 28.027C24.5797 28.031 24.8069 27.9887 25.0189 27.9028C25.2309 27.8169 25.4234 27.6891 25.5849 27.527C25.747 27.3655 25.8748 27.173 25.9607 26.961C26.0466 26.7489 26.0889 26.5217 26.0849 26.293C26.3136 26.297 26.5409 26.2547 26.7529 26.1688C26.9649 26.0829 27.1574 25.9551 27.3189 25.793C27.5952 25.516 27.7681 25.1527 27.8089 24.7636C27.8496 24.3745 27.7557 23.9832 27.5429 23.655L29.1089 20.375L31.4639 18.349C31.5552 18.268 31.6125 18.1554 31.6242 18.0339C31.6359 17.9124 31.6011 17.7909 31.5269 17.694ZM12.1359 13.271L14.0879 14.512L9.84092 19.686L8.14091 18.221L12.1359 13.271ZM12.4119 24.24L13.0009 23.651C13.0187 23.6331 13.0374 23.616 13.0569 23.6C13.171 23.507 13.3103 23.4503 13.4569 23.437H13.4719C13.4929 23.437 13.5139 23.437 13.5349 23.437C13.6341 23.4381 13.7322 23.4591 13.8231 23.499C13.914 23.5389 13.9959 23.5967 14.0639 23.669C14.1949 23.8147 14.2647 24.0053 14.2585 24.2011C14.2524 24.397 14.1708 24.5828 14.0309 24.72L13.4599 25.291C13.3208 25.4297 13.1324 25.5077 12.9359 25.5077C12.7394 25.5077 12.551 25.4297 12.4119 25.291C12.3427 25.2221 12.2877 25.1403 12.2502 25.0501C12.2127 24.96 12.1934 24.8633 12.1933 24.7657C12.1932 24.6681 12.2123 24.5714 12.2497 24.4812C12.287 24.391 12.3428 24.309 12.4119 24.24ZM13.9279 27.247C13.8589 27.1784 13.8041 27.0967 13.7669 27.0067C13.7296 26.9168 13.7106 26.8204 13.7109 26.723C13.7106 26.6256 13.7296 26.5292 13.7669 26.4393C13.8041 26.3493 13.8589 26.2676 13.9279 26.199L15.0709 25.057C15.1797 24.9495 15.3188 24.8779 15.4695 24.8518C15.6202 24.8257 15.7753 24.8463 15.9139 24.911C16.0538 24.9793 16.1686 25.09 16.2419 25.2274C16.3151 25.3648 16.3431 25.5218 16.3219 25.676C16.299 25.8451 16.2215 26.0022 16.1009 26.123L14.9769 27.247C14.9083 27.316 14.8266 27.3707 14.7367 27.408C14.6467 27.4452 14.5503 27.4643 14.4529 27.464C14.3552 27.4645 14.2584 27.4456 14.1681 27.4083C14.0778 27.3711 13.9968 27.3162 13.9279 27.247ZM15.6529 28.989C15.5839 28.9203 15.5292 28.8387 15.4919 28.7487C15.4547 28.6588 15.4356 28.5623 15.4359 28.465C15.4357 28.3677 15.4547 28.2712 15.492 28.1813C15.5292 28.0914 15.5839 28.0097 15.6529 27.941L16.7949 26.799C16.9114 26.6837 17.0626 26.6098 17.2251 26.5887C17.3877 26.5675 17.5528 26.6003 17.6949 26.682C17.8221 26.7571 17.9238 26.8686 17.9869 27.0021C18.05 27.1357 18.0716 27.2851 18.0489 27.431C18.0237 27.5957 17.9466 27.7481 17.8289 27.866L16.7049 28.99C16.6362 29.059 16.5546 29.1137 16.4646 29.1509C16.3747 29.1882 16.2782 29.2072 16.1809 29.207C16.0826 29.2078 15.9852 29.1889 15.8943 29.1515C15.8035 29.1141 15.7211 29.0588 15.6519 28.989H15.6529ZM17.6179 30.508C17.4792 30.3689 17.4012 30.1805 17.4012 29.984C17.4012 29.7875 17.4792 29.5991 17.6179 29.46L18.2069 28.871C18.2249 28.853 18.2436 28.8363 18.2629 28.821C18.3582 28.7435 18.4712 28.6909 18.5919 28.668H18.5999C18.6209 28.668 18.6419 28.661 18.6629 28.659H18.6889H18.7409C18.8401 28.66 18.9382 28.6811 19.0291 28.7209C19.12 28.7608 19.2019 28.8187 19.2699 28.891C19.2869 28.9088 19.3029 28.9275 19.3179 28.947C19.4269 29.0957 19.4785 29.2788 19.4632 29.4625C19.448 29.6462 19.3669 29.8183 19.2349 29.947L18.6669 30.515C18.5975 30.5835 18.5153 30.6377 18.425 30.6745C18.3346 30.7112 18.238 30.7298 18.1405 30.7292C18.043 30.7285 17.9465 30.7086 17.8567 30.6707C17.7668 30.6327 17.6863 30.5775 17.6179 30.508ZM26.6319 25.116C26.4928 25.2547 26.3043 25.3327 26.1079 25.3327C25.9114 25.3327 25.723 25.2547 25.5839 25.116C25.5735 25.1054 25.5624 25.0954 25.5509 25.086L22.4439 21.946C22.3533 21.8554 22.2305 21.8046 22.1024 21.8046C21.9743 21.8046 21.8515 21.8554 21.7609 21.946C21.6703 22.0366 21.6195 22.1594 21.6195 22.2875C21.6195 22.4156 21.6703 22.5384 21.7609 22.629L24.9019 25.802C25.0406 25.9411 25.1186 26.1295 25.1186 26.326C25.1186 26.5225 25.0406 26.7109 24.9019 26.85C24.8332 26.919 24.7516 26.9738 24.6617 27.011C24.5717 27.0482 24.4753 27.0673 24.3779 27.067C24.2806 27.0673 24.1841 27.0482 24.0942 27.011C24.0042 26.9738 23.9226 26.919 23.8539 26.85L21.7539 24.727C21.6633 24.6364 21.5405 24.5856 21.4124 24.5856C21.2843 24.5856 21.1615 24.6364 21.0709 24.727C20.9803 24.8176 20.9295 24.9404 20.9295 25.0685C20.9295 25.1966 20.9803 25.3194 21.0709 25.41L23.1399 27.5C23.1506 27.5133 23.1619 27.5259 23.1739 27.538C23.3127 27.6771 23.3905 27.8655 23.3905 28.062C23.3905 28.2585 23.3127 28.4469 23.1739 28.586C23.0348 28.7247 22.8463 28.8027 22.6499 28.8027C22.4534 28.8027 22.265 28.7247 22.1259 28.586L20.9719 27.424C20.8813 27.3334 20.7585 27.2826 20.6304 27.2826C20.5023 27.2826 20.3795 27.3334 20.2889 27.424C20.1984 27.5146 20.1474 27.6374 20.1474 27.7655C20.1474 27.8936 20.1984 28.0164 20.2889 28.107L21.4039 29.233C21.4145 29.2463 21.4258 29.259 21.4379 29.271C21.5766 29.4101 21.6546 29.5985 21.6546 29.795C21.6546 29.9915 21.5766 30.1799 21.4379 30.319C21.2988 30.4577 21.1104 30.5357 20.9139 30.5357C20.7175 30.5357 20.529 30.4577 20.3899 30.319C20.3552 30.2876 20.3185 30.2585 20.2799 30.232C20.2479 30.208 20.2399 30.191 20.2559 30.153C20.2719 30.115 20.2959 30.079 20.3119 30.04C20.3279 30.001 20.3439 29.951 20.3579 29.906C20.4323 29.6658 20.4538 29.4123 20.4209 29.163C20.3894 28.9274 20.309 28.701 20.1846 28.4984C20.0602 28.2959 19.8948 28.1217 19.6989 27.987C19.4838 27.8401 19.2378 27.7447 18.9799 27.708C19.0426 27.4347 19.0377 27.1502 18.9656 26.8792C18.8934 26.6082 18.7562 26.3589 18.5659 26.153C18.4093 25.9868 18.2209 25.8539 18.0118 25.7621C17.8027 25.6704 17.5772 25.6217 17.3489 25.619H17.2979C17.3099 25.172 17.1458 24.7382 16.8409 24.411C16.6843 24.2448 16.4958 24.1119 16.2867 24.0201C16.0776 23.9284 15.8522 23.8797 15.6239 23.877C15.4853 23.8752 15.347 23.89 15.2119 23.921C15.1538 23.5191 14.9533 23.1515 14.6469 22.885C14.3435 22.6219 13.9565 22.4752 13.5549 22.471C13.1245 22.4653 12.7079 22.6221 12.3879 22.91L10.5199 20.393L14.9879 14.949L16.4119 15.339L14.5519 18.621C14.4406 18.8163 14.3691 19.0318 14.3417 19.255C14.3142 19.4781 14.3313 19.7045 14.3919 19.921C14.4509 20.1369 14.5519 20.339 14.6892 20.5158C14.8265 20.6925 14.9973 20.8404 15.1919 20.951L15.2669 20.991H15.2729C15.3377 21.0238 15.4045 21.0526 15.4729 21.077C15.7989 21.1897 16.1516 21.2005 16.4839 21.108C16.6998 21.049 16.9019 20.948 17.0787 20.8107C17.2554 20.6734 17.4033 20.5026 17.5139 20.308L18.7229 18.175L20.8809 18.328L26.6279 24.074C26.7648 24.2125 26.8417 24.3993 26.8421 24.5941C26.8425 24.7888 26.7663 24.9759 26.6299 25.115L26.6319 25.116ZM26.8319 22.901L21.4409 17.51L21.4089 17.481C21.3312 17.4161 21.2349 17.3772 21.1339 17.37L18.4919 17.183C18.4009 17.1774 18.3101 17.1973 18.2297 17.2404C18.1494 17.2835 18.0826 17.3481 18.0369 17.427L16.6779 19.827C16.6301 19.9118 16.566 19.9863 16.4893 20.0462C16.4126 20.1061 16.3247 20.1502 16.2309 20.176C16.1371 20.2021 16.0391 20.2094 15.9424 20.1973C15.8458 20.1853 15.7525 20.1543 15.6679 20.106C15.583 20.0583 15.5086 19.9942 15.4486 19.9175C15.3887 19.8407 15.3446 19.7529 15.3189 19.659C15.2927 19.5652 15.2854 19.4671 15.2975 19.3705C15.3095 19.2738 15.3406 19.1805 15.3889 19.096L17.2029 15.896L17.9379 15.684H17.9519L20.6949 14.892H24.0099L28.1479 20.153L26.8319 22.901ZM28.7809 19.386L24.9539 14.519L26.9069 13.277L30.4829 17.922L28.7809 19.386Z" fill="white"/>
<path d="M21.9149 13.009C21.9785 13.009 22.0414 12.9965 22.1001 12.9722C22.1588 12.9478 22.2121 12.912 22.2569 12.867L25.5569 9.567C25.6475 9.47642 25.6984 9.35358 25.6984 9.2255C25.6984 9.09741 25.6475 8.97458 25.5569 8.884C25.4663 8.79344 25.3435 8.74256 25.2154 8.74256C25.0873 8.74256 24.9645 8.79344 24.8739 8.884L21.5739 12.184C21.4834 12.2746 21.4325 12.3974 21.4325 12.5255C21.4325 12.6536 21.4834 12.7764 21.5739 12.867C21.6186 12.9119 21.6718 12.9476 21.7303 12.972C21.7888 12.9963 21.8515 13.0089 21.9149 13.009Z" fill="white"/>
<path d="M16.357 12.868C16.4018 12.913 16.4551 12.9488 16.5138 12.9732C16.5725 12.9975 16.6354 13.01 16.6989 13.01C16.7623 13.01 16.8251 12.9974 16.8836 12.973C16.9422 12.9487 16.9953 12.913 17.0399 12.868C17.1305 12.7774 17.1814 12.6546 17.1814 12.5265C17.1814 12.3984 17.1305 12.2756 17.0399 12.185L13.74 8.885C13.6494 8.79444 13.5266 8.74356 13.3985 8.74356C13.2704 8.74356 13.1475 8.79444 13.0569 8.885C12.9664 8.97558 12.9155 9.09841 12.9155 9.2265C12.9155 9.35458 12.9664 9.47742 13.0569 9.568L16.357 12.868Z" fill="white"/>
<path d="M19.3059 13.01C19.434 13.01 19.5568 12.9591 19.6474 12.8685C19.738 12.778 19.7889 12.6551 19.7889 12.527V9.799C19.7889 9.6709 19.738 9.54805 19.6474 9.45747C19.5568 9.36689 19.434 9.316 19.3059 9.316C19.1778 9.316 19.0549 9.36689 18.9644 9.45747C18.8738 9.54805 18.8229 9.6709 18.8229 9.799V12.53C18.8237 12.6576 18.8749 12.7797 18.9654 12.8696C19.0559 12.9595 19.1783 13.01 19.3059 13.01Z" fill="white"/>
<path d="M18.861 8.044C18.8991 8.13619 18.9646 8.21443 19.0487 8.2681C19.1327 8.32177 19.2313 8.34827 19.331 8.344C19.4289 8.33844 19.5228 8.3035 19.6006 8.24375C19.6784 8.18399 19.7364 8.10218 19.767 8.009C19.7968 7.91413 19.7969 7.81239 19.7672 7.71746C19.7376 7.62253 19.6795 7.53897 19.601 7.478C19.5206 7.4174 19.4234 7.38314 19.3228 7.37992C19.2222 7.3767 19.123 7.40467 19.0389 7.46C18.9471 7.52246 18.8795 7.61443 18.8471 7.72064C18.8147 7.82686 18.8196 7.94095 18.861 8.044Z" fill="white"/>
</svg>
