<svg width="36" height="32" viewBox="0 0 36 32" fill="none" xmlns="http://www.w3.org/2000/svg">
<path d="M34.1918 0H1.80822C0.809567 0 0 0.819327 0 1.83002C0 2.84071 0.809567 3.66004 1.80822 3.66004H34.1918C35.1904 3.66004 36 2.84071 36 1.83002C36 0.819327 35.1904 0 34.1918 0Z" fill="white"/>
<path d="M34.1918 18.8933H1.80822C0.809567 18.8933 0 19.7126 0 20.7233C0 21.734 0.809567 22.5533 1.80822 22.5533H34.1918C35.1904 22.5533 36 21.734 36 20.7233C36 19.7126 35.1904 18.8933 34.1918 18.8933Z" fill="white"/>
<path d="M34.1747 28.34H12.9192C12.0997 28.34 11.4354 29.0123 11.4354 29.8416V30.4984C11.4354 31.3277 12.0997 32 12.9192 32H34.1747C34.9941 32 35.6584 31.3277 35.6584 30.4984V29.8416C35.6584 29.0123 34.9941 28.34 34.1747 28.34Z" fill="white"/>
<path d="M34.1747 9.44666H12.9192C12.0997 9.44666 11.4354 10.119 11.4354 10.9483V11.6051C11.4354 12.4344 12.0997 13.1067 12.9192 13.1067H34.1747C34.9941 13.1067 35.6584 12.4344 35.6584 11.6051V10.9483C35.6584 10.119 34.9941 9.44666 34.1747 9.44666Z" fill="white"/>
</svg>
