<svg width="40" height="40" viewBox="0 0 40 40" fill="none" xmlns="http://www.w3.org/2000/svg">
<path opacity="0.5" d="M20 40C31.0457 40 40 31.0457 40 20C40 8.9543 31.0457 0 20 0C8.9543 0 0 8.9543 0 20C0 31.0457 8.9543 40 20 40Z" fill="black"/>
<path d="M27.2301 9.341H13.0221C12.038 9.34233 11.0946 9.73384 10.3987 10.4297C9.70289 11.1255 9.31138 12.0689 9.31006 13.053V27.312C9.31112 28.2691 9.6918 29.1867 10.3686 29.8635C11.0453 30.5403 11.963 30.9209 12.9201 30.922H20.1101C21.5245 30.9233 22.9254 30.646 24.2327 30.1059C25.54 29.5659 26.7281 28.7736 27.7292 27.7743C28.7303 26.7751 29.5248 25.5884 30.0673 24.2821C30.6098 22.9758 30.8897 21.5755 30.8911 20.161V13.002C30.89 12.0314 30.5039 11.1008 29.8176 10.4145C29.1313 9.72811 28.2007 9.34206 27.2301 9.341ZM12.9201 29.552C12.3261 29.5515 11.7567 29.3153 11.3367 28.8953C10.9168 28.4754 10.6806 27.9059 10.6801 27.312V13.053C10.6809 12.4321 10.9279 11.8369 11.3669 11.3978C11.8059 10.9588 12.4012 10.7118 13.0221 10.711H27.2301C27.8375 10.7115 28.4199 10.9531 28.8495 11.3826C29.279 11.8121 29.5205 12.3946 29.5211 13.002V20.141C29.5201 20.5951 29.4867 21.0486 29.4211 21.498H25.0771C24.12 21.4991 23.2023 21.8797 22.5256 22.5565C21.8488 23.2333 21.4681 24.1509 21.4671 25.108V25.401C21.0181 25.4974 20.5602 25.5461 20.1011 25.546C19.2524 25.5483 18.4116 25.3823 17.6276 25.0575C16.8435 24.7328 16.1316 24.2557 15.5331 23.654C15.4046 23.5255 15.2303 23.4533 15.0486 23.4533C14.8668 23.4533 14.6926 23.5255 14.5641 23.654C14.4356 23.7825 14.3634 23.9568 14.3634 24.1385C14.3634 24.3202 14.4356 24.4945 14.5641 24.623C15.2895 25.3525 16.1524 25.9308 17.1028 26.3246C18.0532 26.7183 19.0723 26.9197 20.1011 26.917C20.559 26.9168 21.0161 26.8766 21.4671 26.797V29.455C21.0177 29.5207 20.5642 29.5541 20.1101 29.555L12.9201 29.552ZM22.8371 29.152V25.108C22.8376 24.5141 23.0738 23.9446 23.4937 23.5247C23.9137 23.1047 24.4831 22.8685 25.0771 22.868H29.1201C28.6733 24.3528 27.8656 25.7038 26.7692 26.8002C25.6728 27.8966 24.3219 28.7043 22.8371 29.151V29.152Z" fill="white"/>
<path d="M15.048 20.493C15.2297 20.493 15.4039 20.4208 15.5324 20.2924C15.6609 20.1639 15.733 19.9897 15.733 19.808V18.492C15.733 18.3103 15.6609 18.1361 15.5324 18.0076C15.4039 17.8792 15.2297 17.807 15.048 17.807C14.8664 17.807 14.6921 17.8792 14.5637 18.0076C14.4352 18.1361 14.363 18.3103 14.363 18.492V19.808C14.363 19.9897 14.4352 20.1639 14.5637 20.2924C14.6921 20.4208 14.8664 20.493 15.048 20.493Z" fill="white"/>
<path d="M25.153 20.493C25.3347 20.493 25.5089 20.4208 25.6374 20.2924C25.7659 20.1639 25.838 19.9897 25.838 19.808V18.492C25.838 18.3103 25.7659 18.1361 25.6374 18.0076C25.5089 17.8792 25.3347 17.807 25.153 17.807C24.9713 17.807 24.7971 17.8792 24.6686 18.0076C24.5402 18.1361 24.468 18.3103 24.468 18.492V19.808C24.468 19.9897 24.5402 20.1639 24.6686 20.2924C24.7971 20.4208 24.9713 20.493 25.153 20.493Z" fill="white"/>
</svg>
