<svg width="32" height="32" viewBox="0 0 32 32" fill="none" xmlns="http://www.w3.org/2000/svg">
<path d="M17.1229 19.4699H18.0654L17.641 18.1092H14.7324L14.3079 19.4699H15.3066V21.1801H11.7177V19.4699H12.423L15.0008 11.7177H17.5037L20.0253 19.4699H20.7119V21.1801H17.1229V19.4699ZM15.2255 16.5113H17.1354L16.1742 13.4342L15.2255 16.5113Z" fill="white"/>
<path d="M15.9999 32C11.7579 31.9952 7.69108 30.308 4.69153 27.3084C1.69199 24.3089 0.00479306 20.242 0 16C0.00479306 11.758 1.69199 7.69113 4.69153 4.69158C7.69108 1.69204 11.7579 0.00479306 15.9999 0C20.242 0.00451165 24.309 1.69167 27.3086 4.69128C30.3082 7.69088 31.9954 11.7579 31.9999 16C31.9954 20.2421 30.3082 24.3091 27.3086 27.3087C24.309 30.3083 20.242 31.9955 15.9999 32ZM15.9999 2.66312C12.464 2.66734 9.07428 4.07383 6.57405 6.57407C4.07381 9.0743 2.66734 12.4641 2.66312 16C2.66734 19.5359 4.07381 22.9257 6.57405 25.4259C9.07428 27.9262 12.464 29.3327 15.9999 29.3369C19.5358 29.3329 22.9258 27.9265 25.4261 25.4262C27.9264 22.9259 29.3329 19.536 29.3368 16C29.3329 12.4641 27.9264 9.07406 25.4261 6.57376C22.9258 4.07346 19.5358 2.66706 15.9999 2.66312Z" fill="white"/>
</svg>
