<svg width="40" height="40" viewBox="0 0 40 40" fill="none" xmlns="http://www.w3.org/2000/svg">
<path opacity="0.5" d="M20 40C31.0457 40 40 31.0457 40 20C40 8.9543 31.0457 0 20 0C8.9543 0 0 8.9543 0 20C0 31.0457 8.9543 40 20 40Z" fill="black"/>
<path d="M10.2401 25H8.4858L13.5597 11.1818H15.2869L20.3608 25H18.6065L14.4773 13.3679H14.3693L10.2401 25ZM10.8878 19.6023H17.9588V21.0866H10.8878V19.6023ZM25.3469 25.2429C24.6902 25.2429 24.0942 25.1192 23.5589 24.8718C23.0237 24.6199 22.5986 24.2578 22.2837 23.7855C21.9689 23.3087 21.8114 22.733 21.8114 22.0582C21.8114 21.4645 21.9284 20.9832 22.1623 20.6143C22.3962 20.241 22.7088 19.9486 23.1001 19.7372C23.4915 19.5258 23.9233 19.3684 24.3956 19.2649C24.8724 19.157 25.3514 19.0715 25.8327 19.0085C26.4625 18.9276 26.973 18.8668 27.3643 18.8263C27.7602 18.7814 28.0481 18.7071 28.228 18.6037C28.4124 18.5002 28.5046 18.3203 28.5046 18.0639V18.0099C28.5046 17.3442 28.3224 16.8269 27.9581 16.4581C27.5982 16.0893 27.0517 15.9048 26.3185 15.9048C25.5584 15.9048 24.9624 16.0713 24.5305 16.4041C24.0987 16.737 23.7951 17.0923 23.6197 17.4702L22.1083 16.9304C22.3782 16.3007 22.738 15.8104 23.1879 15.4595C23.6422 15.1042 24.137 14.8568 24.6722 14.7173C25.212 14.5734 25.7428 14.5014 26.2646 14.5014C26.5974 14.5014 26.9798 14.5419 27.4116 14.6229C27.8479 14.6993 28.2685 14.859 28.6733 15.1019C29.0826 15.3448 29.4222 15.7114 29.6921 16.2017C29.962 16.692 30.0969 17.3487 30.0969 18.1719V25H28.5046V23.5966H28.4237C28.3157 23.8215 28.1358 24.0621 27.8839 24.3185C27.632 24.5749 27.2969 24.7931 26.8786 24.973C26.4602 25.1529 25.9497 25.2429 25.3469 25.2429ZM25.5898 23.8125C26.2196 23.8125 26.7504 23.6888 27.1822 23.4414C27.6185 23.194 27.9469 22.8746 28.1673 22.4833C28.3922 22.092 28.5046 21.6804 28.5046 21.2486V19.7912C28.4371 19.8722 28.2887 19.9464 28.0593 20.0138C27.8344 20.0768 27.5735 20.133 27.2766 20.1825C26.9843 20.2275 26.6986 20.268 26.4197 20.304C26.1454 20.3355 25.9227 20.3625 25.7518 20.3849C25.338 20.4389 24.9511 20.5266 24.5913 20.6481C24.2359 20.765 23.948 20.9427 23.7276 21.1811C23.5117 21.415 23.4038 21.7344 23.4038 22.1392C23.4038 22.6925 23.6084 23.1108 24.0178 23.3942C24.4316 23.6731 24.9556 23.8125 25.5898 23.8125Z" fill="white"/>
</svg>
