<svg width="32" height="32" viewBox="0 0 32 32" fill="none" xmlns="http://www.w3.org/2000/svg">
<path d="M25.2781 32H6.72206C4.93975 31.9978 3.23104 31.2814 1.97086 30.0078C0.710679 28.7343 0.00184566 27.0077 0 25.2068V6.79322C0.00184566 4.99232 0.710679 3.2657 1.97086 1.99216C3.23104 0.718624 4.93975 0.00217629 6.72206 0H25.2781C27.0604 0.00217629 28.7691 0.718624 30.0293 1.99216C31.2895 3.2657 31.9982 4.99232 32 6.79322V25.2068C31.9982 27.0077 31.2895 28.7343 30.0293 30.0078C28.7691 31.2814 27.0604 31.9978 25.2781 32ZM6.72206 2.93621C5.71025 2.93776 4.74036 3.34466 4.02501 4.06769C3.30966 4.79072 2.90715 5.77086 2.90592 6.79322V25.2068C2.90715 26.2291 3.30966 27.2093 4.02501 27.9323C4.74036 28.6553 5.71025 29.0622 6.72206 29.0638H25.2781C26.2899 29.0622 27.2598 28.6553 27.9751 27.9323C28.6905 27.2093 29.0929 26.2291 29.0941 25.2068V6.79322C29.0929 5.77086 28.6905 4.79072 27.9751 4.06769C27.2598 3.34466 26.2899 2.93776 25.2781 2.93621H6.72206ZM22.8674 20.0003H17.045L15.4759 22.8378H12.8489L20.088 9.75292H23.3834L26.0742 22.8378H23.4287L22.8674 20.0003ZM22.414 17.7371L21.3027 12.2076L18.2701 17.7371H22.414ZM15.3572 13.3786C15.3572 13.0487 15.2275 12.7323 14.9967 12.4991C14.7658 12.2658 14.4528 12.1348 14.1263 12.1348H8.68171C8.35565 12.1354 8.04326 12.2667 7.81292 12.4999C7.58257 12.7331 7.45308 13.0491 7.45308 13.3786C7.45308 13.7085 7.58281 14.025 7.81363 14.2585C8.04444 14.4919 8.35755 14.6232 8.68413 14.6235H14.1286C14.4548 14.6226 14.7672 14.491 14.9975 14.2576C15.2279 14.0242 15.3572 13.7081 15.3572 13.3786ZM11.876 18.7941V18.477C11.876 18.1892 11.7628 17.9131 11.5614 17.7096C11.36 17.5061 11.0868 17.3918 10.802 17.3918H6.93121C6.79007 17.3916 6.65031 17.4196 6.51987 17.474C6.38943 17.5285 6.27096 17.6084 6.1711 17.7092C6.07125 17.81 5.99202 17.9297 5.93798 18.0614C5.88393 18.1932 5.85611 18.3344 5.85611 18.477V18.7941C5.85611 18.9367 5.88393 19.0779 5.93798 19.2097C5.99202 19.3414 6.07125 19.4611 6.1711 19.5619C6.27096 19.6627 6.38943 19.7426 6.51987 19.7971C6.65031 19.8515 6.79007 19.8795 6.93121 19.8793H10.802C11.0858 19.8778 11.3574 19.7628 11.5576 19.5594C11.7577 19.356 11.8701 19.0809 11.8701 18.7941H11.876Z" fill="white"/>
</svg>
