<svg width="32" height="32" viewBox="0 0 32 32" fill="none" xmlns="http://www.w3.org/2000/svg">
<path fill-rule="evenodd" clip-rule="evenodd" d="M6 0C2.68629 0 0 2.68629 0 6V26C0 29.3137 2.68629 32 6 32H26C29.3137 32 32 29.3137 32 26V6C32 2.68629 29.3137 0 26 0H6ZM17.0449 20.0003H22.8673L23.4286 22.8379H26.0741L23.3833 9.75293H20.0879L12.8488 22.8379H15.4758L17.0449 20.0003ZM21.3027 12.2076L22.4139 17.7371H18.27L21.3027 12.2076ZM14.9966 12.4991C15.2275 12.7323 15.3572 13.0487 15.3572 13.3786C15.3572 13.7081 15.2278 14.0243 14.9975 14.2576C14.7672 14.491 14.4547 14.6226 14.1285 14.6235H8.68405C8.35747 14.6232 8.04436 14.4919 7.81355 14.2585C7.58273 14.025 7.453 13.7085 7.453 13.3786C7.453 13.0491 7.58249 12.7331 7.81284 12.4999C8.04318 12.2667 8.35557 12.1354 8.68163 12.1348H14.1263C14.4527 12.1348 14.7658 12.2658 14.9966 12.4991ZM11.8759 18.477V18.7941H11.8701C11.8701 19.0809 11.7576 19.3561 11.5575 19.5594C11.3573 19.7628 11.0857 19.8778 10.8019 19.8793H6.93113C6.78999 19.8795 6.65023 19.8515 6.51979 19.7971C6.38935 19.7426 6.27088 19.6627 6.17102 19.5619C6.07117 19.4611 5.99194 19.3414 5.9379 19.2097C5.88385 19.0779 5.85603 18.9367 5.85603 18.7941V18.477C5.85603 18.3344 5.88385 18.1932 5.9379 18.0614C5.99194 17.9297 6.07117 17.81 6.17102 17.7092C6.27088 17.6084 6.38935 17.5285 6.51979 17.474C6.65023 17.4196 6.78999 17.3916 6.93113 17.3918H10.8019C11.0868 17.3918 11.3599 17.5061 11.5613 17.7096C11.7627 17.9131 11.8759 18.1892 11.8759 18.477Z" fill="white"/>
</svg>
